<svg xmlns="http://www.w3.org/2000/svg" xmlns:xlink="http://www.w3.org/1999/xlink" width="100" zoomAndPan="magnify" viewBox="0 0 75 37.5" height="50" preserveAspectRatio="xMidYMid meet" version="1.0"><defs><g/></defs><g fill="#0a57a1" fill-opacity="1"><g transform="translate(2.487149, 20.773029)"><g><path d="M 9.53125 -10.859375 C 9.488281 -11.367188 9.296875 -11.765625 8.953125 -12.046875 C 8.609375 -12.335938 8.09375 -12.484375 7.40625 -12.484375 C 6.957031 -12.484375 6.59375 -12.429688 6.3125 -12.328125 C 6.03125 -12.222656 5.820312 -12.078125 5.6875 -11.890625 C 5.5625 -11.710938 5.492188 -11.507812 5.484375 -11.28125 C 5.472656 -11.09375 5.507812 -10.921875 5.59375 -10.765625 C 5.675781 -10.617188 5.800781 -10.484375 5.96875 -10.359375 C 6.144531 -10.242188 6.367188 -10.132812 6.640625 -10.03125 C 6.910156 -9.9375 7.234375 -9.847656 7.609375 -9.765625 L 8.90625 -9.5 C 9.78125 -9.3125 10.523438 -9.066406 11.140625 -8.765625 C 11.765625 -8.460938 12.273438 -8.101562 12.671875 -7.6875 C 13.066406 -7.28125 13.359375 -6.820312 13.546875 -6.3125 C 13.734375 -5.8125 13.832031 -5.257812 13.84375 -4.65625 C 13.832031 -3.613281 13.570312 -2.734375 13.0625 -2.015625 C 12.550781 -1.296875 11.816406 -0.75 10.859375 -0.375 C 9.910156 0 8.765625 0.1875 7.421875 0.1875 C 6.054688 0.1875 4.863281 -0.015625 3.84375 -0.421875 C 2.820312 -0.828125 2.03125 -1.453125 1.46875 -2.296875 C 0.90625 -3.140625 0.617188 -4.222656 0.609375 -5.546875 L 4.6875 -5.546875 C 4.707031 -5.066406 4.828125 -4.660156 5.046875 -4.328125 C 5.265625 -4.003906 5.566406 -3.753906 5.953125 -3.578125 C 6.347656 -3.410156 6.820312 -3.328125 7.375 -3.328125 C 7.820312 -3.328125 8.203125 -3.382812 8.515625 -3.5 C 8.828125 -3.613281 9.0625 -3.769531 9.21875 -3.96875 C 9.375 -4.164062 9.457031 -4.394531 9.46875 -4.65625 C 9.457031 -4.894531 9.375 -5.101562 9.21875 -5.28125 C 9.070312 -5.46875 8.828125 -5.632812 8.484375 -5.78125 C 8.140625 -5.925781 7.675781 -6.066406 7.09375 -6.203125 L 5.515625 -6.53125 C 4.117188 -6.832031 3.019531 -7.335938 2.21875 -8.046875 C 1.414062 -8.765625 1.015625 -9.738281 1.015625 -10.96875 C 1.015625 -11.976562 1.285156 -12.859375 1.828125 -13.609375 C 2.367188 -14.359375 3.117188 -14.941406 4.078125 -15.359375 C 5.046875 -15.785156 6.15625 -16 7.40625 -16 C 8.675781 -16 9.773438 -15.785156 10.703125 -15.359375 C 11.628906 -14.929688 12.347656 -14.332031 12.859375 -13.5625 C 13.367188 -12.789062 13.625 -11.890625 13.625 -10.859375 Z M 9.53125 -10.859375 "/></g></g></g><g fill="#0a57a1" fill-opacity="1"><g transform="translate(16.948016, 20.773029)"><g><path d="M 0.578125 -12.328125 L 0.578125 -15.78125 L 14.296875 -15.78125 L 14.296875 -12.328125 L 9.5625 -12.328125 L 9.5625 0 L 5.328125 0 L 5.328125 -12.328125 Z M 0.578125 -12.328125 "/></g></g></g><g fill="#0a57a1" fill-opacity="1"><g transform="translate(31.840555, 20.773029)"><g><path d="M 1.015625 0 L 1.015625 -15.78125 L 12.390625 -15.78125 L 12.390625 -12.328125 L 5.296875 -12.328125 L 5.296875 -9.625 L 11.8125 -9.625 L 11.8125 -6.171875 L 5.296875 -6.171875 L 5.296875 -3.453125 L 12.359375 -3.453125 L 12.359375 0 Z M 1.015625 0 "/></g></g></g><g fill="#0a57a1" fill-opacity="1"><g transform="translate(45.345584, 20.773029)"><g><path d="M 1.015625 0 L 1.015625 -15.78125 L 7.828125 -15.78125 C 9.003906 -15.78125 10.03125 -15.546875 10.90625 -15.078125 C 11.78125 -14.617188 12.460938 -13.972656 12.953125 -13.140625 C 13.441406 -12.304688 13.6875 -11.328125 13.6875 -10.203125 C 13.6875 -9.078125 13.4375 -8.097656 12.9375 -7.265625 C 12.4375 -6.441406 11.734375 -5.804688 10.828125 -5.359375 C 9.929688 -4.910156 8.878906 -4.6875 7.671875 -4.6875 L 3.609375 -4.6875 L 3.609375 -8.015625 L 6.8125 -8.015625 C 7.3125 -8.015625 7.738281 -8.101562 8.09375 -8.28125 C 8.457031 -8.457031 8.734375 -8.707031 8.921875 -9.03125 C 9.117188 -9.363281 9.21875 -9.753906 9.21875 -10.203125 C 9.21875 -10.648438 9.117188 -11.035156 8.921875 -11.359375 C 8.734375 -11.679688 8.457031 -11.925781 8.09375 -12.09375 C 7.738281 -12.269531 7.3125 -12.359375 6.8125 -12.359375 L 5.296875 -12.359375 L 5.296875 0 Z M 1.015625 0 "/></g></g></g><g fill="#000000" fill-opacity="1"><g transform="translate(2.487149, 32.023027)"><g><path d="M 5.1875 -5.90625 C 5.164062 -6.1875 5.0625 -6.40625 4.875 -6.5625 C 4.6875 -6.71875 4.40625 -6.796875 4.03125 -6.796875 C 3.789062 -6.796875 3.59375 -6.765625 3.4375 -6.703125 C 3.289062 -6.648438 3.179688 -6.578125 3.109375 -6.484375 C 3.035156 -6.390625 2.992188 -6.28125 2.984375 -6.15625 C 2.984375 -6.050781 3.003906 -5.957031 3.046875 -5.875 C 3.085938 -5.789062 3.15625 -5.710938 3.25 -5.640625 C 3.34375 -5.578125 3.460938 -5.519531 3.609375 -5.46875 C 3.765625 -5.414062 3.945312 -5.367188 4.15625 -5.328125 L 4.859375 -5.171875 C 5.328125 -5.078125 5.734375 -4.945312 6.078125 -4.78125 C 6.421875 -4.613281 6.695312 -4.414062 6.90625 -4.1875 C 7.125 -3.96875 7.285156 -3.71875 7.390625 -3.4375 C 7.492188 -3.164062 7.546875 -2.863281 7.546875 -2.53125 C 7.546875 -1.96875 7.40625 -1.488281 7.125 -1.09375 C 6.84375 -0.707031 6.441406 -0.410156 5.921875 -0.203125 C 5.398438 -0.00390625 4.773438 0.09375 4.046875 0.09375 C 3.296875 0.09375 2.644531 -0.015625 2.09375 -0.234375 C 1.539062 -0.453125 1.109375 -0.789062 0.796875 -1.25 C 0.492188 -1.707031 0.34375 -2.300781 0.34375 -3.03125 L 2.546875 -3.03125 C 2.566406 -2.757812 2.632812 -2.535156 2.75 -2.359375 C 2.863281 -2.179688 3.023438 -2.046875 3.234375 -1.953125 C 3.453125 -1.859375 3.710938 -1.8125 4.015625 -1.8125 C 4.265625 -1.8125 4.472656 -1.84375 4.640625 -1.90625 C 4.804688 -1.96875 4.929688 -2.050781 5.015625 -2.15625 C 5.109375 -2.269531 5.15625 -2.394531 5.15625 -2.53125 C 5.15625 -2.664062 5.113281 -2.78125 5.03125 -2.875 C 4.945312 -2.976562 4.8125 -3.066406 4.625 -3.140625 C 4.4375 -3.222656 4.179688 -3.300781 3.859375 -3.375 L 3 -3.5625 C 2.238281 -3.726562 1.640625 -4.003906 1.203125 -4.390625 C 0.765625 -4.773438 0.546875 -5.304688 0.546875 -5.984375 C 0.546875 -6.523438 0.691406 -7 0.984375 -7.40625 C 1.285156 -7.820312 1.695312 -8.144531 2.21875 -8.375 C 2.75 -8.601562 3.351562 -8.71875 4.03125 -8.71875 C 4.726562 -8.71875 5.328125 -8.597656 5.828125 -8.359375 C 6.335938 -8.128906 6.726562 -7.804688 7 -7.390625 C 7.28125 -6.972656 7.421875 -6.476562 7.421875 -5.90625 Z M 5.1875 -5.90625 "/></g></g></g><g fill="#000000" fill-opacity="1"><g transform="translate(10.368574, 32.023027)"><g><path d="M 8.890625 -4.296875 C 8.890625 -3.335938 8.703125 -2.53125 8.328125 -1.875 C 7.953125 -1.21875 7.445312 -0.71875 6.8125 -0.375 C 6.1875 -0.0390625 5.484375 0.125 4.703125 0.125 C 3.921875 0.125 3.210938 -0.046875 2.578125 -0.390625 C 1.953125 -0.734375 1.453125 -1.234375 1.078125 -1.890625 C 0.703125 -2.546875 0.515625 -3.347656 0.515625 -4.296875 C 0.515625 -5.253906 0.703125 -6.0625 1.078125 -6.71875 C 1.453125 -7.375 1.953125 -7.867188 2.578125 -8.203125 C 3.210938 -8.546875 3.921875 -8.71875 4.703125 -8.71875 C 5.484375 -8.71875 6.1875 -8.546875 6.8125 -8.203125 C 7.445312 -7.867188 7.953125 -7.375 8.328125 -6.71875 C 8.703125 -6.0625 8.890625 -5.253906 8.890625 -4.296875 Z M 6.484375 -4.296875 C 6.484375 -4.816406 6.414062 -5.253906 6.28125 -5.609375 C 6.144531 -5.960938 5.941406 -6.226562 5.671875 -6.40625 C 5.410156 -6.59375 5.085938 -6.6875 4.703125 -6.6875 C 4.316406 -6.6875 3.988281 -6.59375 3.71875 -6.40625 C 3.457031 -6.226562 3.257812 -5.960938 3.125 -5.609375 C 2.988281 -5.253906 2.921875 -4.816406 2.921875 -4.296875 C 2.921875 -3.785156 2.988281 -3.351562 3.125 -3 C 3.257812 -2.644531 3.457031 -2.375 3.71875 -2.1875 C 3.988281 -2.007812 4.316406 -1.921875 4.703125 -1.921875 C 5.085938 -1.921875 5.410156 -2.007812 5.671875 -2.1875 C 5.941406 -2.375 6.144531 -2.644531 6.28125 -3 C 6.414062 -3.351562 6.484375 -3.785156 6.484375 -4.296875 Z M 6.484375 -4.296875 "/></g></g></g><g fill="#000000" fill-opacity="1"><g transform="translate(19.779232, 32.023027)"><g><path d="M 0.546875 0 L 0.546875 -8.609375 L 2.890625 -8.609375 L 2.890625 -1.875 L 6.375 -1.875 L 6.375 0 Z M 0.546875 0 "/></g></g></g><g fill="#000000" fill-opacity="1"><g transform="translate(26.534739, 32.023027)"><g><path d="M 5.640625 -8.609375 L 7.984375 -8.609375 L 7.984375 -3.09375 C 7.984375 -2.4375 7.828125 -1.867188 7.515625 -1.390625 C 7.203125 -0.910156 6.765625 -0.539062 6.203125 -0.28125 C 5.648438 -0.03125 5.003906 0.09375 4.265625 0.09375 C 3.523438 0.09375 2.875 -0.03125 2.3125 -0.28125 C 1.757812 -0.539062 1.328125 -0.910156 1.015625 -1.390625 C 0.703125 -1.867188 0.546875 -2.4375 0.546875 -3.09375 L 0.546875 -8.609375 L 2.890625 -8.609375 L 2.890625 -3.296875 C 2.890625 -3.023438 2.945312 -2.785156 3.0625 -2.578125 C 3.1875 -2.367188 3.351562 -2.207031 3.5625 -2.09375 C 3.769531 -1.976562 4.003906 -1.921875 4.265625 -1.921875 C 4.535156 -1.921875 4.773438 -1.976562 4.984375 -2.09375 C 5.191406 -2.207031 5.351562 -2.367188 5.46875 -2.578125 C 5.582031 -2.785156 5.640625 -3.023438 5.640625 -3.296875 Z M 5.640625 -8.609375 "/></g></g></g><g fill="#000000" fill-opacity="1"><g transform="translate(35.071549, 32.023027)"><g><path d="M 0.3125 -6.71875 L 0.3125 -8.609375 L 7.796875 -8.609375 L 7.796875 -6.71875 L 5.203125 -6.71875 L 5.203125 0 L 2.90625 0 L 2.90625 -6.71875 Z M 0.3125 -6.71875 "/></g></g></g><g fill="#000000" fill-opacity="1"><g transform="translate(43.188241, 32.023027)"><g><path d="M 2.890625 -8.609375 L 2.890625 0 L 0.546875 0 L 0.546875 -8.609375 Z M 2.890625 -8.609375 "/></g></g></g><g fill="#000000" fill-opacity="1"><g transform="translate(46.633213, 32.023027)"><g><path d="M 8.890625 -4.296875 C 8.890625 -3.335938 8.703125 -2.53125 8.328125 -1.875 C 7.953125 -1.21875 7.445312 -0.71875 6.8125 -0.375 C 6.1875 -0.0390625 5.484375 0.125 4.703125 0.125 C 3.921875 0.125 3.210938 -0.046875 2.578125 -0.390625 C 1.953125 -0.734375 1.453125 -1.234375 1.078125 -1.890625 C 0.703125 -2.546875 0.515625 -3.347656 0.515625 -4.296875 C 0.515625 -5.253906 0.703125 -6.0625 1.078125 -6.71875 C 1.453125 -7.375 1.953125 -7.867188 2.578125 -8.203125 C 3.210938 -8.546875 3.921875 -8.71875 4.703125 -8.71875 C 5.484375 -8.71875 6.1875 -8.546875 6.8125 -8.203125 C 7.445312 -7.867188 7.953125 -7.375 8.328125 -6.71875 C 8.703125 -6.0625 8.890625 -5.253906 8.890625 -4.296875 Z M 6.484375 -4.296875 C 6.484375 -4.816406 6.414062 -5.253906 6.28125 -5.609375 C 6.144531 -5.960938 5.941406 -6.226562 5.671875 -6.40625 C 5.410156 -6.59375 5.085938 -6.6875 4.703125 -6.6875 C 4.316406 -6.6875 3.988281 -6.59375 3.71875 -6.40625 C 3.457031 -6.226562 3.257812 -5.960938 3.125 -5.609375 C 2.988281 -5.253906 2.921875 -4.816406 2.921875 -4.296875 C 2.921875 -3.785156 2.988281 -3.351562 3.125 -3 C 3.257812 -2.644531 3.457031 -2.375 3.71875 -2.1875 C 3.988281 -2.007812 4.316406 -1.921875 4.703125 -1.921875 C 5.085938 -1.921875 5.410156 -2.007812 5.671875 -2.1875 C 5.941406 -2.375 6.144531 -2.644531 6.28125 -3 C 6.414062 -3.351562 6.484375 -3.785156 6.484375 -4.296875 Z M 6.484375 -4.296875 "/></g></g></g><g fill="#000000" fill-opacity="1"><g transform="translate(56.04387, 32.023027)"><g><path d="M 8 -8.609375 L 8 0 L 6.046875 0 L 2.9375 -4.515625 L 2.890625 -4.515625 L 2.890625 0 L 0.546875 0 L 0.546875 -8.609375 L 2.53125 -8.609375 L 5.59375 -4.09375 L 5.65625 -4.09375 L 5.65625 -8.609375 Z M 8 -8.609375 "/></g></g></g><g fill="#000000" fill-opacity="1"><g transform="translate(64.597485, 32.023027)"><g><path d="M 5.1875 -5.90625 C 5.164062 -6.1875 5.0625 -6.40625 4.875 -6.5625 C 4.6875 -6.71875 4.40625 -6.796875 4.03125 -6.796875 C 3.789062 -6.796875 3.59375 -6.765625 3.4375 -6.703125 C 3.289062 -6.648438 3.179688 -6.578125 3.109375 -6.484375 C 3.035156 -6.390625 2.992188 -6.28125 2.984375 -6.15625 C 2.984375 -6.050781 3.003906 -5.957031 3.046875 -5.875 C 3.085938 -5.789062 3.15625 -5.710938 3.25 -5.640625 C 3.34375 -5.578125 3.460938 -5.519531 3.609375 -5.46875 C 3.765625 -5.414062 3.945312 -5.367188 4.15625 -5.328125 L 4.859375 -5.171875 C 5.328125 -5.078125 5.734375 -4.945312 6.078125 -4.78125 C 6.421875 -4.613281 6.695312 -4.414062 6.90625 -4.1875 C 7.125 -3.96875 7.285156 -3.71875 7.390625 -3.4375 C 7.492188 -3.164062 7.546875 -2.863281 7.546875 -2.53125 C 7.546875 -1.96875 7.40625 -1.488281 7.125 -1.09375 C 6.84375 -0.707031 6.441406 -0.410156 5.921875 -0.203125 C 5.398438 -0.00390625 4.773438 0.09375 4.046875 0.09375 C 3.296875 0.09375 2.644531 -0.015625 2.09375 -0.234375 C 1.539062 -0.453125 1.109375 -0.789062 0.796875 -1.25 C 0.492188 -1.707031 0.34375 -2.300781 0.34375 -3.03125 L 2.546875 -3.03125 C 2.566406 -2.757812 2.632812 -2.535156 2.75 -2.359375 C 2.863281 -2.179688 3.023438 -2.046875 3.234375 -1.953125 C 3.453125 -1.859375 3.710938 -1.8125 4.015625 -1.8125 C 4.265625 -1.8125 4.472656 -1.84375 4.640625 -1.90625 C 4.804688 -1.96875 4.929688 -2.050781 5.015625 -2.15625 C 5.109375 -2.269531 5.15625 -2.394531 5.15625 -2.53125 C 5.15625 -2.664062 5.113281 -2.78125 5.03125 -2.875 C 4.945312 -2.976562 4.8125 -3.066406 4.625 -3.140625 C 4.4375 -3.222656 4.179688 -3.300781 3.859375 -3.375 L 3 -3.5625 C 2.238281 -3.726562 1.640625 -4.003906 1.203125 -4.390625 C 0.765625 -4.773438 0.546875 -5.304688 0.546875 -5.984375 C 0.546875 -6.523438 0.691406 -7 0.984375 -7.40625 C 1.285156 -7.820312 1.695312 -8.144531 2.21875 -8.375 C 2.75 -8.601562 3.351562 -8.71875 4.03125 -8.71875 C 4.726562 -8.71875 5.328125 -8.597656 5.828125 -8.359375 C 6.335938 -8.128906 6.726562 -7.804688 7 -7.390625 C 7.28125 -6.972656 7.421875 -6.476562 7.421875 -5.90625 Z M 5.1875 -5.90625 "/></g></g></g></svg>