<svg xmlns="http://www.w3.org/2000/svg" xmlns:xlink="http://www.w3.org/1999/xlink" width="100" zoomAndPan="magnify" viewBox="0 0 75 37.5" height="50" preserveAspectRatio="xMidYMid meet" version="1.0"><defs><g/></defs><g fill="#0a57a1" fill-opacity="1"><g transform="translate(2.459395, 28.125)"><g><path d="M 11.6875 -13.328125 C 11.644531 -13.953125 11.410156 -14.441406 10.984375 -14.796875 C 10.566406 -15.148438 9.929688 -15.328125 9.078125 -15.328125 C 8.535156 -15.328125 8.09375 -15.257812 7.75 -15.125 C 7.40625 -15 7.148438 -14.828125 6.984375 -14.609375 C 6.828125 -14.390625 6.742188 -14.132812 6.734375 -13.84375 C 6.722656 -13.613281 6.765625 -13.40625 6.859375 -13.21875 C 6.960938 -13.03125 7.117188 -12.863281 7.328125 -12.71875 C 7.546875 -12.570312 7.820312 -12.4375 8.15625 -12.3125 C 8.488281 -12.195312 8.882812 -12.09375 9.34375 -12 L 10.9375 -11.65625 C 12.007812 -11.425781 12.925781 -11.125 13.6875 -10.75 C 14.445312 -10.382812 15.070312 -9.945312 15.5625 -9.4375 C 16.050781 -8.9375 16.410156 -8.375 16.640625 -7.75 C 16.867188 -7.132812 16.984375 -6.457031 16.984375 -5.71875 C 16.984375 -4.4375 16.664062 -3.351562 16.03125 -2.46875 C 15.40625 -1.59375 14.503906 -0.921875 13.328125 -0.453125 C 12.160156 0.00390625 10.757812 0.234375 9.125 0.234375 C 7.4375 0.234375 5.96875 -0.015625 4.71875 -0.515625 C 3.46875 -1.015625 2.492188 -1.78125 1.796875 -2.8125 C 1.109375 -3.851562 0.757812 -5.1875 0.75 -6.8125 L 5.75 -6.8125 C 5.78125 -6.21875 5.925781 -5.71875 6.1875 -5.3125 C 6.457031 -4.914062 6.832031 -4.613281 7.3125 -4.40625 C 7.800781 -4.195312 8.378906 -4.09375 9.046875 -4.09375 C 9.609375 -4.09375 10.078125 -4.160156 10.453125 -4.296875 C 10.828125 -4.429688 11.113281 -4.617188 11.3125 -4.859375 C 11.507812 -5.109375 11.613281 -5.394531 11.625 -5.71875 C 11.613281 -6.007812 11.515625 -6.265625 11.328125 -6.484375 C 11.140625 -6.710938 10.832031 -6.914062 10.40625 -7.09375 C 9.988281 -7.28125 9.421875 -7.453125 8.703125 -7.609375 L 6.78125 -8.015625 C 5.0625 -8.390625 3.707031 -9.015625 2.71875 -9.890625 C 1.726562 -10.765625 1.238281 -11.957031 1.25 -13.46875 C 1.238281 -14.695312 1.566406 -15.773438 2.234375 -16.703125 C 2.898438 -17.628906 3.820312 -18.347656 5 -18.859375 C 6.1875 -19.378906 7.546875 -19.640625 9.078125 -19.640625 C 10.640625 -19.640625 11.992188 -19.375 13.140625 -18.84375 C 14.285156 -18.320312 15.164062 -17.585938 15.78125 -16.640625 C 16.40625 -15.691406 16.71875 -14.585938 16.71875 -13.328125 Z M 11.6875 -13.328125 "/></g></g></g><g fill="#0a57a1" fill-opacity="1"><g transform="translate(20.202202, 28.125)"><g><path d="M 0.71875 -15.140625 L 0.71875 -19.375 L 17.5625 -19.375 L 17.5625 -15.140625 L 11.734375 -15.140625 L 11.734375 0 L 6.546875 0 L 6.546875 -15.140625 Z M 0.71875 -15.140625 "/></g></g></g><g fill="#0a57a1" fill-opacity="1"><g transform="translate(38.47464, 28.125)"><g><path d="M 1.25 0 L 1.25 -19.375 L 15.21875 -19.375 L 15.21875 -15.140625 L 6.515625 -15.140625 L 6.515625 -11.8125 L 14.5 -11.8125 L 14.5 -7.5625 L 6.515625 -7.5625 L 6.515625 -4.234375 L 15.171875 -4.234375 L 15.171875 0 Z M 1.25 0 "/></g></g></g><g fill="#0a57a1" fill-opacity="1"><g transform="translate(55.044683, 28.125)"><g><path d="M 1.25 0 L 1.25 -19.375 L 9.609375 -19.375 C 11.046875 -19.375 12.300781 -19.085938 13.375 -18.515625 C 14.457031 -17.953125 15.296875 -17.15625 15.890625 -16.125 C 16.492188 -15.101562 16.796875 -13.90625 16.796875 -12.53125 C 16.796875 -11.132812 16.488281 -9.925781 15.875 -8.90625 C 15.257812 -7.894531 14.398438 -7.113281 13.296875 -6.5625 C 12.191406 -6.019531 10.898438 -5.75 9.421875 -5.75 L 4.421875 -5.75 L 4.421875 -9.84375 L 8.359375 -9.84375 C 8.984375 -9.84375 9.515625 -9.945312 9.953125 -10.15625 C 10.390625 -10.375 10.722656 -10.6875 10.953125 -11.09375 C 11.191406 -11.5 11.3125 -11.976562 11.3125 -12.53125 C 11.3125 -13.082031 11.191406 -13.554688 10.953125 -13.953125 C 10.722656 -14.347656 10.390625 -14.648438 9.953125 -14.859375 C 9.515625 -15.066406 8.984375 -15.171875 8.359375 -15.171875 L 6.515625 -15.171875 L 6.515625 0 Z M 1.25 0 "/></g></g></g></svg>